<?xml version="1.0" ?><!DOCTYPE svg  PUBLIC '-//W3C//DTD SVG 1.1//EN'  'http://www.w3.org/Graphics/SVG/1.1/DTD/svg11.dtd'><svg height="512px" style="enable-background:new 0 0 512 512;" version="1.1" viewBox="0 0 512 512" width="512px" xml:space="preserve" xmlns="http://www.w3.org/2000/svg" xmlns:xlink="http://www.w3.org/1999/xlink"><g id="comp_x5F_171-imdb"><g><g><rect height="131.222" width="33.884" x="92.485" y="189.529"/><path d="M190.646,251.032c-2.773-20.536-5.544-41.174-8.933-61.503h-43.947v131.222h29.776v-86.763l12.528,86.763h21.15     l11.912-88.714v88.714h29.469V189.529h-44.152L190.646,251.032z"/><path d="M329.877,210.987c-4.414-23.102-32.24-21.458-50.311-21.458h-25.261v131.222c88.407,0.104,77.009,6.16,77.009-84.709     C331.314,227.724,331.624,218.792,329.877,210.987z M288.293,297.955v-85.94c12.219,0,10.576,6.47,10.576,16.428v50.622     C298.869,289.023,300.819,298.265,288.293,297.955z"/><path d="M396.72,222.898c-9.137,0-15.298,2.773-21.457,9.447v-42.816h-32.55v131.222h30.597l1.953-8.317     c5.852,6.982,12.218,10.063,21.457,10.063c20.331,0,22.795-15.607,22.795-31.729v-36.964     C419.515,236.042,418.693,222.898,396.72,222.898z M380.293,303.604c-1.642,0-3.081-0.823-3.902-2.465     c-2.26-5.237-1.128-45.282-1.128-45.897c0-3.902-1.132-13.041,5.03-13.041c7.496,0,6.364,7.497,6.364,13.041v33.574     C386.657,294.362,388.301,303.604,380.293,303.604z"/></g><path d="    M429.902,456H82.098C53.877,456,31,433.123,31,404.902V107.098C31,78.877,53.877,56,82.098,56h347.805    C458.123,56,481,78.877,481,107.098v297.805C481,433.123,458.123,456,429.902,456z" style="fill:none;stroke:#000000;stroke-width:20;stroke-linecap:round;stroke-linejoin:round;stroke-miterlimit:10;"/></g></g><g id="Layer_1"/></svg>